<svg id="Layer_1" data-name="Layer 1" xmlns="http://www.w3.org/2000/svg" viewBox="0 0 626.48 648"><defs><style>.cls-1{font-size:61.39px;font-family:Muli-Regular, Muli;letter-spacing:-0.02em;}.cls-1,.cls-5{fill:#15adce;}.cls-2{letter-spacing:-0.04em;}.cls-3{letter-spacing:-0.03em;}.cls-4{letter-spacing:-0.03em;}.cls-6{fill:#ea1f6f;}</style></defs><text class="cls-1" transform="translate(64.5 581.43)">Siemp<tspan class="cls-2" x="169.38" y="0">r</tspan><tspan x="189.46" y="0">e p</tspan><tspan class="cls-3" x="271.11" y="0">r</tspan><tspan class="cls-4" x="291.19" y="0">esente</tspan></text><circle class="cls-5" cx="495.74" cy="208.17" r="27.75"/><circle class="cls-5" cx="321.86" cy="50.14" r="29.5"/><path class="cls-5" d="M220.15,374.85A43.76,43.76,0,0,1,172.1,418.4c-22.74-2.17-39.45-22.58-39.45-45.43V264.57a29.38,29.38,0,0,0-29.38-29.38h0a29.38,29.38,0,0,0-29.38,29.38v110A102.52,102.52,0,0,0,176.4,477.05h0A102.51,102.51,0,0,0,278.91,374.54v-110a29.38,29.38,0,0,0-29.38-29.38h0a29.39,29.39,0,0,0-29.38,29.38Z"/><path class="cls-6" d="M278.11,230.7a43.77,43.77,0,0,1,48.05-43.55c22.75,2.17,39.46,22.58,39.46,45.43V447.83A29.38,29.38,0,0,0,395,477.21h0a29.38,29.38,0,0,0,29.38-29.38V231A102.51,102.51,0,0,0,321.86,128.51h0A102.51,102.51,0,0,0,219.35,231v90.53a29.38,29.38,0,0,0,29.38,29.38h0a29.38,29.38,0,0,0,29.38-29.38Z"/><rect class="cls-5" x="466.36" y="257.2" width="58.76" height="220.01" rx="29.38"/></svg>