<svg id="Layer_1" data-name="Layer 1" xmlns="http://www.w3.org/2000/svg" viewBox="0 0 813.17 676.34"><defs><style>.cls-1{fill:#15adce;}.cls-2{fill:#ea1f6f;}</style></defs><circle class="cls-1" cx="634.14" cy="273.96" r="34.65"/><circle class="cls-1" cx="417.04" cy="76.66" r="36.83"/><path class="cls-1" d="M290.05,482.08a54.63,54.63,0,0,1-60,54.37c-28.4-2.71-49.26-28.19-49.26-56.72V344.39a36.68,36.68,0,0,0-36.68-36.68h0a36.68,36.68,0,0,0-36.68,36.68V481.68a128,128,0,0,0,128,128h0a128,128,0,0,0,128-128V344.39a36.68,36.68,0,0,0-36.68-36.68h0a36.69,36.69,0,0,0-36.69,36.68Z"/><path class="cls-2" d="M362.42,302.1a54.63,54.63,0,0,1,60-54.37c28.4,2.71,49.26,28.19,49.26,56.72V573.2a36.68,36.68,0,0,0,36.68,36.68h0A36.68,36.68,0,0,0,545,573.2V302.5a128,128,0,0,0-128-128h0a128,128,0,0,0-128,128v113a36.69,36.69,0,0,0,36.69,36.68h0a36.68,36.68,0,0,0,36.68-36.68Z"/><rect class="cls-1" x="597.45" y="335.18" width="73.37" height="274.7" rx="36.68"/></svg>