<svg id="Layer_1" data-name="Layer 1" xmlns="http://www.w3.org/2000/svg" viewBox="0 0 1152 648"><defs><style>.cls-1{font-size:74.15px;fill:#17aecf;font-family:Muli-Regular, Muli;letter-spacing:-0.02em;}.cls-2{letter-spacing:-0.03em;}.cls-3{fill:#15adce;}.cls-4{fill:#ea1f6f;}</style></defs><text class="cls-1" transform="translate(536.32 551.18)">Siemp<tspan class="cls-2" x="204.57" y="0">r</tspan><tspan x="228.81" y="0">e p</tspan><tspan class="cls-2" x="327.42" y="0">r</tspan><tspan x="351.67" y="0">esente</tspan></text><circle class="cls-3" cx="465.78" cy="279.37" r="27.02"/><circle class="cls-3" cx="296.52" cy="125.54" r="28.72"/><path class="cls-3" d="M197.52,441.63A42.61,42.61,0,0,1,150.74,484c-22.14-2.12-38.4-22-38.4-44.22V334.28a28.59,28.59,0,0,0-28.6-28.6h0a28.59,28.59,0,0,0-28.6,28.6v107a99.79,99.79,0,0,0,99.79,99.79h0a99.79,99.79,0,0,0,99.79-99.79v-107a28.6,28.6,0,0,0-28.6-28.6h0a28.59,28.59,0,0,0-28.6,28.6Z"/><path class="cls-4" d="M253.94,301.3a42.59,42.59,0,0,1,46.77-42.38c22.14,2.11,38.4,22,38.4,44.22V512.67a28.61,28.61,0,0,0,28.6,28.6h0a28.6,28.6,0,0,0,28.6-28.6V301.61a99.78,99.78,0,0,0-99.79-99.78h0a99.78,99.78,0,0,0-99.78,99.78v88.13a28.59,28.59,0,0,0,28.6,28.6h0a28.6,28.6,0,0,0,28.6-28.6Z"/><rect class="cls-3" x="437.18" y="327.1" width="57.2" height="214.17" rx="28.6"/></svg>